<svg width="22" height="22" viewBox="0 0 22 22" fill="none" xmlns="http://www.w3.org/2000/svg">
<rect width="22" height="22" fill="white"/>
<path d="M21.0834 11C21.0834 11.2431 20.9868 11.4763 20.8149 11.6482C20.643 11.8201 20.4098 11.9167 20.1667 11.9167H15.5834C15.4325 11.9167 15.2839 11.8795 15.1509 11.8083C15.0178 11.7372 14.9044 11.6343 14.8207 11.5088L14.0269 10.3171L11.869 16.7888C11.8084 16.9714 11.6919 17.1303 11.5359 17.243C11.3799 17.3557 11.1924 17.4165 11 17.4167H10.9652C10.7669 17.4091 10.5763 17.3373 10.4223 17.2122C10.2682 17.0871 10.1589 16.9153 10.1109 16.7228L8.12352 8.77617L7.28569 11.2897C7.22492 11.4721 7.1083 11.6309 6.95235 11.7434C6.79639 11.8559 6.609 11.9165 6.41669 11.9167H1.83335C1.59024 11.9167 1.35708 11.8201 1.18517 11.6482C1.01326 11.4763 0.916687 11.2431 0.916687 11C0.916687 10.7569 1.01326 10.5237 1.18517 10.3518C1.35708 10.1799 1.59024 10.0833 1.83335 10.0833H5.75577L7.38102 5.21034C7.444 5.02243 7.56617 4.85999 7.72924 4.74737C7.89231 4.63475 8.08748 4.578 8.28551 4.58564C8.48355 4.59328 8.67377 4.6649 8.82767 4.78975C8.98158 4.9146 9.09088 5.08597 9.13919 5.27817L11.1265 13.2238L12.881 7.96034C12.9353 7.79767 13.0341 7.6535 13.1663 7.5442C13.2984 7.43491 13.4586 7.36487 13.6285 7.34205C13.7985 7.31923 13.9715 7.34454 14.1278 7.41511C14.284 7.48568 14.4174 7.59867 14.5127 7.74125L16.0738 10.0833H20.1667C20.4098 10.0833 20.643 10.1799 20.8149 10.3518C20.9868 10.5237 21.0834 10.7569 21.0834 11Z" fill="#787878"/>
</svg>
