<svg width="73" height="23" viewBox="0 0 73 23" fill="none" xmlns="http://www.w3.org/2000/svg">
<path d="M5.40909 16V4.36364H9.47727C10.2879 4.36364 10.9564 4.50379 11.483 4.78409C12.0095 5.06061 12.4015 5.43371 12.6591 5.90341C12.9167 6.36932 13.0455 6.88636 13.0455 7.45455C13.0455 7.95455 12.9564 8.36742 12.7784 8.69318C12.6042 9.01894 12.3731 9.27652 12.0852 9.46591C11.8011 9.6553 11.4924 9.79545 11.1591 9.88636V10C11.5152 10.0227 11.8731 10.1477 12.233 10.375C12.5928 10.6023 12.8939 10.928 13.1364 11.3523C13.3788 11.7765 13.5 12.2955 13.5 12.9091C13.5 13.4924 13.3674 14.017 13.1023 14.483C12.8371 14.9489 12.4186 15.3182 11.8466 15.5909C11.2746 15.8636 10.5303 16 9.61364 16H5.40909ZM6.81818 14.75H9.61364C10.5341 14.75 11.1875 14.572 11.5739 14.2159C11.964 13.8561 12.1591 13.4205 12.1591 12.9091C12.1591 12.5152 12.0587 12.1515 11.858 11.8182C11.6572 11.4811 11.3712 11.2121 11 11.0114C10.6288 10.8068 10.1894 10.7045 9.68182 10.7045H6.81818V14.75ZM6.81818 9.47727H9.43182C9.85606 9.47727 10.2386 9.39394 10.5795 9.22727C10.9242 9.06061 11.197 8.82576 11.3977 8.52273C11.6023 8.2197 11.7045 7.86364 11.7045 7.45455C11.7045 6.94318 11.5265 6.50947 11.1705 6.15341C10.8144 5.79356 10.25 5.61364 9.47727 5.61364H6.81818V9.47727ZM16.9744 4.36364V16H15.6335V4.36364H16.9744ZM22.9759 16.1818C22.188 16.1818 21.4967 15.9943 20.902 15.6193C20.3111 15.2443 19.849 14.7197 19.5156 14.0455C19.1861 13.3712 19.0213 12.5833 19.0213 11.6818C19.0213 10.7727 19.1861 9.97917 19.5156 9.30114C19.849 8.62311 20.3111 8.09659 20.902 7.72159C21.4967 7.34659 22.188 7.15909 22.9759 7.15909C23.7637 7.15909 24.4531 7.34659 25.044 7.72159C25.6387 8.09659 26.1009 8.62311 26.4304 9.30114C26.7637 9.97917 26.9304 10.7727 26.9304 11.6818C26.9304 12.5833 26.7637 13.3712 26.4304 14.0455C26.1009 14.7197 25.6387 15.2443 25.044 15.6193C24.4531 15.9943 23.7637 16.1818 22.9759 16.1818ZM22.9759 14.9773C23.5743 14.9773 24.0668 14.8239 24.4531 14.517C24.8395 14.2102 25.1255 13.8068 25.3111 13.3068C25.4967 12.8068 25.5895 12.2652 25.5895 11.6818C25.5895 11.0985 25.4967 10.5549 25.3111 10.0511C25.1255 9.54735 24.8395 9.14015 24.4531 8.82955C24.0668 8.51894 23.5743 8.36364 22.9759 8.36364C22.3774 8.36364 21.8849 8.51894 21.4986 8.82955C21.1122 9.14015 20.8262 9.54735 20.6406 10.0511C20.455 10.5549 20.3622 11.0985 20.3622 11.6818C20.3622 12.2652 20.455 12.8068 20.6406 13.3068C20.8262 13.8068 21.1122 14.2102 21.4986 14.517C21.8849 14.8239 22.3774 14.9773 22.9759 14.9773ZM32.5 19.4545C31.8523 19.4545 31.2955 19.3712 30.8295 19.2045C30.3636 19.0417 29.9754 18.8258 29.6648 18.5568C29.358 18.2917 29.1136 18.0076 28.9318 17.7045L30 16.9545C30.1212 17.1136 30.2746 17.2955 30.4602 17.5C30.6458 17.7083 30.8996 17.8883 31.2216 18.0398C31.5473 18.1951 31.9735 18.2727 32.5 18.2727C33.2045 18.2727 33.786 18.1023 34.2443 17.7614C34.7027 17.4205 34.9318 16.8864 34.9318 16.1591V14.3864H34.8182C34.7197 14.5455 34.5795 14.7424 34.3977 14.9773C34.2197 15.2083 33.9621 15.4148 33.625 15.5966C33.2917 15.7746 32.8409 15.8636 32.2727 15.8636C31.5682 15.8636 30.9356 15.697 30.375 15.3636C29.8182 15.0303 29.3769 14.5455 29.0511 13.9091C28.7292 13.2727 28.5682 12.5 28.5682 11.5909C28.5682 10.697 28.7254 9.91856 29.0398 9.25568C29.3542 8.58901 29.7917 8.07386 30.3523 7.71023C30.9129 7.3428 31.5606 7.15909 32.2955 7.15909C32.8636 7.15909 33.3144 7.25379 33.6477 7.44318C33.9848 7.62879 34.2424 7.84091 34.4205 8.07955C34.6023 8.31439 34.7424 8.50758 34.8409 8.65909H34.9773V7.27273H36.2727V16.25C36.2727 17 36.1023 17.6098 35.7614 18.0795C35.4242 18.553 34.9697 18.8996 34.3977 19.1193C33.8295 19.3428 33.197 19.4545 32.5 19.4545ZM32.4545 14.6591C32.9924 14.6591 33.447 14.536 33.8182 14.2898C34.1894 14.0436 34.4716 13.6894 34.6648 13.2273C34.858 12.7652 34.9545 12.2121 34.9545 11.5682C34.9545 10.9394 34.8598 10.3845 34.6705 9.90341C34.4811 9.42235 34.2008 9.04545 33.8295 8.77273C33.4583 8.5 33 8.36364 32.4545 8.36364C31.8864 8.36364 31.4129 8.50758 31.0341 8.79545C30.6591 9.08333 30.3769 9.4697 30.1875 9.95455C30.0019 10.4394 29.9091 10.9773 29.9091 11.5682C29.9091 12.1742 30.0038 12.7102 30.1932 13.1761C30.3864 13.6383 30.6705 14.0019 31.0455 14.267C31.4242 14.5284 31.8939 14.6591 32.4545 14.6591ZM38.9091 16V4.36364H42.8409C43.7538 4.36364 44.5 4.52841 45.0795 4.85795C45.6629 5.18371 46.0947 5.625 46.375 6.18182C46.6553 6.73864 46.7955 7.35985 46.7955 8.04545C46.7955 8.73106 46.6553 9.35417 46.375 9.91477C46.0985 10.4754 45.6705 10.9223 45.0909 11.2557C44.5114 11.5852 43.7689 11.75 42.8636 11.75H40.0455V10.5H42.8182C43.4432 10.5 43.9451 10.392 44.3239 10.1761C44.7027 9.96023 44.9773 9.66856 45.1477 9.30114C45.322 8.92992 45.4091 8.51136 45.4091 8.04545C45.4091 7.57955 45.322 7.16288 45.1477 6.79545C44.9773 6.42803 44.7008 6.14015 44.3182 5.93182C43.9356 5.7197 43.428 5.61364 42.7955 5.61364H40.3182V16H38.9091ZM52.3352 16.1818C51.5473 16.1818 50.8561 15.9943 50.2614 15.6193C49.6705 15.2443 49.2083 14.7197 48.875 14.0455C48.5455 13.3712 48.3807 12.5833 48.3807 11.6818C48.3807 10.7727 48.5455 9.97917 48.875 9.30114C49.2083 8.62311 49.6705 8.09659 50.2614 7.72159C50.8561 7.34659 51.5473 7.15909 52.3352 7.15909C53.1231 7.15909 53.8125 7.34659 54.4034 7.72159C54.9981 8.09659 55.4602 8.62311 55.7898 9.30114C56.1231 9.97917 56.2898 10.7727 56.2898 11.6818C56.2898 12.5833 56.1231 13.3712 55.7898 14.0455C55.4602 14.7197 54.9981 15.2443 54.4034 15.6193C53.8125 15.9943 53.1231 16.1818 52.3352 16.1818ZM52.3352 14.9773C52.9337 14.9773 53.4261 14.8239 53.8125 14.517C54.1989 14.2102 54.4848 13.8068 54.6705 13.3068C54.8561 12.8068 54.9489 12.2652 54.9489 11.6818C54.9489 11.0985 54.8561 10.5549 54.6705 10.0511C54.4848 9.54735 54.1989 9.14015 53.8125 8.82955C53.4261 8.51894 52.9337 8.36364 52.3352 8.36364C51.7367 8.36364 51.2443 8.51894 50.858 8.82955C50.4716 9.14015 50.1856 9.54735 50 10.0511C49.8144 10.5549 49.7216 11.0985 49.7216 11.6818C49.7216 12.2652 49.8144 12.8068 50 13.3068C50.1856 13.8068 50.4716 14.2102 50.858 14.517C51.2443 14.8239 51.7367 14.9773 52.3352 14.9773ZM64.5185 9.22727L63.3139 9.56818C63.2382 9.36742 63.1264 9.17235 62.9787 8.98295C62.8348 8.78977 62.6378 8.63068 62.3878 8.50568C62.1378 8.38068 61.8177 8.31818 61.4276 8.31818C60.8935 8.31818 60.4484 8.44129 60.0923 8.6875C59.7401 8.92992 59.5639 9.23864 59.5639 9.61364C59.5639 9.94697 59.6851 10.2102 59.9276 10.4034C60.17 10.5966 60.5488 10.7576 61.0639 10.8864L62.3594 11.2045C63.1397 11.3939 63.7211 11.6837 64.1037 12.0739C64.4863 12.4602 64.6776 12.9583 64.6776 13.5682C64.6776 14.0682 64.5336 14.5152 64.2457 14.9091C63.9616 15.303 63.5639 15.6136 63.0526 15.8409C62.5412 16.0682 61.9465 16.1818 61.2685 16.1818C60.3783 16.1818 59.6416 15.9886 59.0582 15.6023C58.4749 15.2159 58.1056 14.6515 57.9503 13.9091L59.223 13.5909C59.3442 14.0606 59.5734 14.4129 59.9105 14.6477C60.2514 14.8826 60.6965 15 61.2457 15C61.8707 15 62.367 14.8674 62.7344 14.6023C63.1056 14.3333 63.2912 14.0114 63.2912 13.6364C63.2912 13.3333 63.1851 13.0795 62.973 12.875C62.7609 12.6667 62.4351 12.5114 61.9957 12.4091L60.5412 12.0682C59.742 11.8788 59.1548 11.5852 58.7798 11.1875C58.4086 10.786 58.223 10.2841 58.223 9.68182C58.223 9.18939 58.3613 8.75379 58.6378 8.375C58.9181 7.99621 59.2988 7.69886 59.7798 7.48295C60.2647 7.26705 60.8139 7.15909 61.4276 7.15909C62.2912 7.15909 62.9692 7.34848 63.4616 7.72727C63.9579 8.10606 64.3101 8.60606 64.5185 9.22727ZM70.4915 7.27273V8.40909H65.9688V7.27273H70.4915ZM67.2869 5.18182H68.6278V13.5C68.6278 13.8788 68.6828 14.1629 68.7926 14.3523C68.9063 14.5379 69.0502 14.6629 69.2244 14.7273C69.4025 14.7879 69.59 14.8182 69.7869 14.8182C69.9347 14.8182 70.0559 14.8106 70.1506 14.7955C70.2453 14.7765 70.321 14.7614 70.3778 14.75L70.6506 15.9545C70.5597 15.9886 70.4328 16.0227 70.2699 16.0568C70.107 16.0947 69.9006 16.1136 69.6506 16.1136C69.2718 16.1136 68.9006 16.0322 68.5369 15.8693C68.1771 15.7064 67.8778 15.4583 67.6392 15.125C67.4044 14.7917 67.2869 14.3712 67.2869 13.8636V5.18182Z" fill="black"/>
<circle cx="11.5" cy="11.5" r="11.5" fill="#3300FF" fill-opacity="0.56"/>
</svg>
