<svg width="15" height="15" viewBox="0 0 15 15" fill="none" xmlns="http://www.w3.org/2000/svg">
<path fill-rule="evenodd" clip-rule="evenodd" d="M12.7383 0.115963C13.1483 0.312738 13.6324 0.597667 14.0172 0.982559C14.4028 1.36824 14.6877 1.85152 14.8829 2.26159C15.1292 2.77636 14.9695 3.36983 14.5673 3.77282L8.88991 9.45017C8.64594 9.69417 8.34846 9.87599 8.02028 9.98146L4.69758 11.0464C4.59424 11.0796 4.48375 11.0836 4.37827 11.058C4.27279 11.0324 4.1764 10.9783 4.0997 10.9015C4.023 10.8247 3.96895 10.7282 3.9435 10.6227C3.91805 10.5172 3.92218 10.4067 3.95544 10.3034L5.02025 6.98104C5.12535 6.65304 5.3072 6.35487 5.55069 6.11129L11.2281 0.433164C11.631 0.0301692 12.2244 -0.128825 12.7391 0.11675L12.7383 0.115963ZM12.9044 2.0963C12.71 1.91263 12.4906 1.75735 12.2527 1.63506L6.74849 7.14003C6.69256 7.19588 6.64534 7.25983 6.60841 7.32972L5.43027 9.57059L7.67007 8.39309C7.7409 8.3561 7.80464 8.30887 7.86052 8.25299L13.3648 2.74802C13.2425 2.51016 13.088 2.29075 12.9044 2.0963ZM1.57321 2.79997C1.57304 2.69943 1.61135 2.60264 1.68028 2.52946C1.7492 2.45628 1.84352 2.41225 1.94388 2.40642L6.29597 2.41036C6.5047 2.41036 6.70487 2.32743 6.85246 2.17982C7.00005 2.03221 7.08297 1.83201 7.08297 1.62326C7.08297 1.41451 7.00005 1.2143 6.85246 1.06669C6.70487 0.919085 6.5047 0.836158 6.29597 0.836158L1.96749 0.832223C1.44568 0.832223 0.945241 1.03954 0.576265 1.40856C0.207289 1.77759 0 2.27809 0 2.79997V12.6993C0 13.2975 0.0645337 13.632 0.251052 13.9799C0.427339 14.3097 0.690196 14.5734 1.01995 14.7497C1.3678 14.9355 1.70149 15 2.30039 15H11.8655C12.4637 15 12.7981 14.9355 13.146 14.7497C13.4765 14.5734 13.7394 14.3097 13.9157 13.9799C14.1014 13.632 14.1659 13.2983 14.1659 12.6993V8.70321C14.1659 8.49446 14.083 8.29426 13.9354 8.14665C13.7878 7.99904 13.5877 7.91611 13.3789 7.91611C13.1702 7.91611 12.97 7.99904 12.8224 8.14665C12.6749 8.29426 12.5919 8.49446 12.5919 8.70321V12.6993C12.5919 13.0606 12.5754 13.1487 12.5274 13.2377C12.5001 13.2907 12.4569 13.3339 12.4039 13.3613C12.3149 13.4085 12.2268 13.4258 11.8655 13.4258H2.30039C1.93916 13.4258 1.8518 13.4085 1.76208 13.3613C1.709 13.334 1.6658 13.2908 1.63853 13.2377C1.59131 13.1487 1.57399 13.0606 1.57399 12.6993L1.57321 2.79997Z" fill="#787878"/>
</svg>
